<?xml version="1.0" encoding="UTF-8" standalone="no"?>
<!-- Created with Inkscape (http://www.inkscape.org/) -->

<svg
   width="409.80902mm"
   height="86.888031mm"
   viewBox="0 0 409.80902 86.888033"
   version="1.1"
   id="svg5"
   xml:space="preserve"
   sodipodi:docname="logo.svg"
   inkscape:version="1.4 (86a8ad7, 2024-10-11)"
   inkscape:export-filename="logo-elastomeros-full.svg"
   inkscape:export-xdpi="9.6000004"
   inkscape:export-ydpi="9.6000004"
   xmlns:inkscape="http://www.inkscape.org/namespaces/inkscape"
   xmlns:sodipodi="http://sodipodi.sourceforge.net/DTD/sodipodi-0.dtd"
   xmlns="http://www.w3.org/2000/svg"
   xmlns:svg="http://www.w3.org/2000/svg"><sodipodi:namedview
     id="namedview7"
     pagecolor="#ffffff"
     bordercolor="#999999"
     borderopacity="1"
     inkscape:showpageshadow="0"
     inkscape:pageopacity="0"
     inkscape:pagecheckerboard="0"
     inkscape:deskcolor="#d1d1d1"
     inkscape:document-units="mm"
     showgrid="false"
     inkscape:zoom="0.26362495"
     inkscape:cx="665.71848"
     inkscape:cy="191.56002"
     inkscape:window-width="1718"
     inkscape:window-height="1401"
     inkscape:window-x="-7"
     inkscape:window-y="0"
     inkscape:window-maximized="0"
     inkscape:current-layer="layer1"><inkscape:page
       x="0"
       y="0"
       width="409.80902"
       height="86.888031"
       id="page2"
       margin="0"
       bleed="0" /></sodipodi:namedview><defs
     id="defs2"><clipPath
       id="clip-11"><path
         clip-rule="nonzero"
         d="m 3505,917 h 102.0703 v 114 H 3505 Z m 0,0"
         id="path212" /></clipPath><clipPath
       id="clip-12"><path
         clip-rule="nonzero"
         d="m 3557,1068 h 50.0703 v 57 H 3557 Z m 0,0"
         id="path215" /></clipPath></defs><g
     inkscape:label="Layer 1"
     inkscape:groupmode="layer"
     id="layer1"
     transform="translate(1734.702,600.1209)"><g
       id="g449"
       transform="translate(40.496787,-239.91032)"><g
         id="g436"
         style="stroke-width:1.01075"
         transform="matrix(0.98937332,0,0,0.98937332,-1434.8403,-108.95641)"><path
           fill-rule="nonzero"
           fill="#3b393c"
           fill-opacity="1"
           d="m -160.34107,-188.29633 c 0.27975,-1.67982 1.25952,-2.53971 2.93937,-2.58656 h 15.09914 l -0.69864,4.19474 h -12.7248 l -0.90678,5.24206 h 9.50711 l -0.2825,1.60955 c -0.27838,1.67845 -1.305,2.51492 -3.07164,2.51492 h -6.92189 l -1.12172,6.29348 h 12.7248 l -0.76895,4.47312 h -17.61822 l 3.84472,-21.74131"
           id="path424"
           style="stroke-width:0.356567" /><path
           fill-rule="nonzero"
           fill="#3b393c"
           fill-opacity="1"
           d="m -123.56674,-172.35518 c -0.83923,2.09599 -2.02848,3.63389 -3.56637,4.61507 -1.6757,1.11757 -3.54154,1.65503 -5.59206,1.60539 -5.73264,0 -8.08909,-3.26319 -7.06247,-9.7868 1.11897,-6.47954 4.59027,-9.76478 10.41798,-9.85989 4.56819,0 6.92052,2.05327 7.06244,6.15294 h -5.17589 c -0.32385,-1.30224 -1.23472,-1.95404 -2.72714,-1.95404 -2.51492,0 -4.11346,1.88652 -4.78593,5.66099 -0.678,3.77582 0.33486,5.63753 3.03996,5.59206 1.11894,0 2.14559,-0.44097 3.07714,-1.32704 0.55672,-0.46578 1.1424,-0.69868 1.74597,-0.69868 h 3.56637"
           id="path425"
           style="stroke-width:0.356567" /><path
           fill-rule="nonzero"
           fill="#3b393c"
           fill-opacity="1"
           d="m -102.17409,-174.1039 c -0.56084,3.26319 -1.77076,5.40741 -3.63802,6.43132 -1.86171,0.97977 -3.81991,1.46759 -5.87318,1.46759 -1.95407,0 -3.6587,-0.5333 -5.10149,-1.60542 -1.44557,-1.02662 -1.88655,-3.12262 -1.32983,-6.29349 l 2.02847,-11.395 h 4.7515 l -2.16489,12.37477 c -0.37483,2.09599 0.51124,3.14332 2.65546,3.14332 2.14559,0 3.40515,-1.04733 3.77444,-3.14332 l 1.75013,-10.0004 c 0.23287,-1.58475 1.13961,-2.37437 2.72711,-2.37437 h 2.44465 l -2.02435,11.395"
           id="path426"
           style="stroke-width:0.356567" /><path
           fill-rule="nonzero"
           fill="#3b393c"
           fill-opacity="1"
           d="m -89.033114,-174.9445 c -1.958164,0.37483 -3.07714,1.25952 -3.355517,2.65684 -0.140546,1.49243 0.536081,2.23658 2.025721,2.23658 1.304995,0 2.401923,-0.3707 3.287995,-1.1176 0.884696,-0.74553 1.442825,-1.79282 1.675694,-3.14329 l 0.34865,-1.75013 c -1.209922,0.46577 -2.539718,0.83922 -3.982543,1.1176 z m -1.397318,8.73951 c -1.912726,0.14058 -3.45059,-0.11713 -4.61779,-0.77033 -1.770804,-0.97702 -2.444645,-2.70094 -2.024345,-5.17038 0.37345,-1.91273 1.280195,-3.35552 2.725737,-4.3367 1.442826,-0.97702 3.633894,-1.60817 6.573273,-1.88651 2.094618,-0.23291 3.213559,-0.86131 3.354141,-1.88793 0.09232,-1.07212 -0.839223,-1.60817 -2.797422,-1.60817 -1.675694,0 -2.702348,0.44372 -3.075799,1.3298 h -4.755585 c 1.1672,-3.49607 3.939786,-5.2462 8.321957,-5.2462 5.217266,0 7.573715,1.75013 7.062435,5.2462 l -1.121728,6.43131 c -0.556719,3.21635 -2.120794,5.45289 -4.681185,6.71241 -1.400069,0.6532 -3.055091,1.0487 -4.963689,1.1865"
           id="path427"
           style="stroke-width:0.356567" /><path
           fill-rule="nonzero"
           fill="#3b393c"
           fill-opacity="1"
           d="m -73.444746,-166.51918 c -1.770768,-0.16259 -2.447396,-1.29123 -2.028472,-3.38998 l 3.704166,-20.97373 h 2.448772 c 0.606354,0 1.107969,0.2329 1.503468,0.69867 0.394124,0.46578 0.525004,1.02662 0.384457,1.67983 l -0.490572,3.00549 h 2.867695 l -0.212231,1.04732 c -0.136419,0.69864 -0.475403,1.27053 -1.011485,1.71426 -0.536045,0.44097 -1.128606,0.66424 -1.781774,0.66424 h -0.490608 l -1.886515,10.7666 c -0.141958,0.78962 0.253542,1.18925 1.187874,1.18925 h 1.46759 l -0.626992,3.63252 c -1.5875,0.14192 -3.263194,0.13088 -5.035373,-0.0346"
           id="path428"
           style="stroke-width:0.356567" /><path
           fill-rule="nonzero"
           fill="#3b393c"
           fill-opacity="1"
           d="m -57.088804,-175.92152 c -0.603568,3.67933 0.303177,5.52179 2.725773,5.52179 2.423971,0 3.986671,-1.88793 4.685312,-5.66237 0.653203,-3.68349 -0.232869,-5.52041 -2.65684,-5.52041 -2.514918,0 -4.102418,1.88652 -4.754245,5.66099 z m 12.374774,0 c -1.164414,6.52361 -4.613663,9.7868 -10.346302,9.7868 -5.732639,0 -8.016028,-3.26319 -6.851615,-9.7868 1.118976,-6.57189 4.543425,-9.85989 10.276064,-9.85989 5.732639,0 8.040829,3.288 6.921853,9.85989"
           id="path429"
           style="stroke-width:0.356567" /><path
           fill-rule="nonzero"
           fill="#3b393c"
           fill-opacity="1"
           d="m -38.981391,-176.34044 c 1.209922,-6.10747 4.984397,-9.15846 11.324731,-9.15846 h 0.698677 l -0.906745,4.96369 h -1.609549 c -2.655499,0 -4.219575,1.3753 -4.683971,4.12309 l -1.747344,9.8571 h -4.825894 l 1.750095,-9.78542"
           id="path430"
           style="stroke-width:0.356567" /><path
           fill-rule="nonzero"
           fill="#3b393c"
           fill-opacity="1"
           d="m -17.521178,-190.88289 c 1.5875,0 2.236541,0.76895 1.956823,2.30822 l -0.278377,1.39594 h -4.755621 l 0.628404,-3.70416 z m -0.910907,5.38399 c 1.542027,0 2.169054,0.76895 1.890677,2.30685 l -2.937969,16.63703 h -4.752869 l 3.355552,-18.94388 h 2.444609"
           id="path431"
           style="stroke-width:0.356567" /><path
           fill-rule="nonzero"
           fill="#3b393c"
           fill-opacity="1"
           d="m -4.6599583,-174.9445 c -1.9581989,0.37483 -3.0757636,1.25952 -3.3541406,2.65684 -0.1419225,1.49243 0.5360459,2.23658 2.0243448,2.23658 1.3049955,0 2.4032986,-0.3707 3.2879947,-1.1176 0.886072,-0.74553 1.4427906,-1.79282 1.679822,-3.14329 l 0.34589858,-1.75013 c -1.21129778,0.46577 -2.53696608,0.83922 -3.98391948,1.1176 z m -1.3959417,8.73951 c -1.9127258,0.14058 -3.4506253,-0.11713 -4.619202,-0.77033 -1.76664,-0.97702 -2.444644,-2.70094 -2.024344,-5.17038 0.37345,-1.91273 1.28023,-3.35552 2.7271482,-4.3367 1.4428259,-0.97702 3.6338934,-1.60817 6.571862,-1.88651 2.0959939,-0.23291 3.21359393,-0.86131 3.35551643,-1.88793 0.09098139,-1.07212 -0.8405989,-1.60817 -2.79738673,-1.60817 -1.6756944,0 -2.7023483,0.44372 -3.0771747,1.3298 h -4.7556212 c 1.1685767,-3.49607 3.9411984,-5.2462 8.3233687,-5.2462 5.2200176,0 7.5736804,1.75013 7.0624348,5.2462 l -1.1217275,6.43131 c -0.5580945,3.21635 -2.1207942,5.45289 -4.6825606,6.71241 -1.4001045,0.6532 -3.0551261,1.0487 -4.9623134,1.1865"
           id="path432"
           style="stroke-width:0.356567" /><path
           fill-rule="nonzero"
           fill="#3b393c"
           fill-opacity="1"
           d="m 21.763944,-166.55502 c -1.584748,-0.0909 -2.236576,-0.8847 -1.955447,-2.37434 l 1.747343,-9.71931 c 0.232904,-1.95682 -0.698676,-2.93384 -2.797421,-2.93384 -2.095994,0 -3.330717,0.97702 -3.704167,2.93384 l -2.166267,12.09365 H 8.0620904 l 1.9568226,-11.11525 c 0.931545,-5.40466 4.103794,-8.11114 9.508455,-8.11114 5.407413,0 7.623316,2.70648 6.642136,8.11114 l -1.958164,11.11525 h -2.447396"
           id="path433"
           style="stroke-width:0.356567" /><path
           fill-rule="nonzero"
           fill="#3b393c"
           fill-opacity="1"
           d="m 35.676618,-175.92152 c -0.606355,3.67933 0.303142,5.52179 2.727113,5.52179 2.423972,0 3.982544,-1.88793 4.68122,-5.66237 0.653168,-3.68349 -0.232904,-5.52041 -2.655499,-5.52041 -2.516294,0 -4.099666,1.88652 -4.752834,5.66099 z m 12.372022,0 c -1.164449,6.52361 -4.610911,9.7868 -10.346337,9.7868 -5.732639,0 -8.016028,-3.26319 -6.851579,-9.7868 1.11894,-6.57189 4.544765,-9.85989 10.280156,-9.85989 5.732639,0 8.039488,3.288 6.91776,9.85989"
           id="path434"
           style="stroke-width:0.356567" /><g
           clip-path="url(#clip-12)"
           id="g435"
           transform="matrix(0.35277778,0,0,0.35277778,-1202.2978,-562.81954)"
           style="stroke-width:1.01075"><path
             fill-rule="nonzero"
             fill="#3b393c"
             fill-opacity="1"
             d="m 3571.6406,1105.6406 c -0.4023,2.7696 0.1992,4.75 1.7813,5.9375 1.457,1.3203 4.0273,1.9805 7.7265,1.9805 5.6797,0 8.8516,-1.707 9.5118,-5.1484 0.5312,-2.7696 -3.6993,-4.9493 -12.6797,-6.5391 -11.4922,-2.1094 -16.5821,-7.4023 -15.2617,-15.8516 0.9218,-5.289 3.5703,-9.5195 7.9296,-12.6914 4.2305,-2.8984 9.711,-4.4179 16.4532,-4.5586 6.8672,0 12.0898,1.5196 15.6484,4.5586 3.4414,3.1719 4.8203,7.5313 4.1719,13.0821 h -8.5313 c -3.1718,-0.1289 -4.9492,-1.25 -5.3515,-3.3711 -0.5274,-2.3672 -3.0391,-3.5586 -7.5274,-3.5586 -5.2812,0 -8.1914,1.3789 -8.7226,4.1601 -0.5274,2.7696 2.6406,4.8203 9.5117,6.1407 8.7187,1.8476 14.2695,4.1601 16.6484,6.9375 2.1211,2.6406 2.8399,5.8125 2.1797,9.5117 -1.0586,5.9492 -3.957,10.4414 -8.7187,13.4804 -4.6211,3.0391 -10.961,4.5508 -19.0196,4.5508 -7.539,0 -12.8906,-1.582 -16.0625,-4.75 -3.5664,-3.0429 -4.75,-7.6601 -3.5664,-13.8711 h 13.8789"
             id="path435"
             style="stroke-width:9.12722" /></g><path
           fill-rule="nonzero"
           fill="#3b393c"
           fill-opacity="1"
           d="m -178.93906,-181.62936 h -164.81337 l -0.26183,4.56819 h 164.81474"
           id="path436"
           style="stroke-width:0.356567" /></g><g
         id="g448"
         style="fill:#448c74;fill-opacity:1;stroke-width:1.01075"
         transform="matrix(0.98937332,0,0,0.98937332,-1434.8403,-108.95641)"><path
           fill-rule="nonzero"
           fill="#1e6533"
           fill-opacity="1"
           d="m -335.99961,-244.47342 c 0.57605,-3.43959 2.57969,-5.20623 6.01927,-5.30132 h 30.95904 l -1.43595,8.60034 h -26.0835 l -1.86309,10.7487 h 19.49097 l -0.57189,3.29489 c -0.57464,3.43958 -2.67339,5.16213 -6.30728,5.16213 h -14.1883 l -2.29305,12.89706 h 26.0835 l -1.57645,9.17222 h -36.11425 l 7.88098,-44.57402"
           id="path437"
           style="fill:#448c74;fill-opacity:1;stroke-width:0.356567" /><path
           fill-rule="nonzero"
           fill="#1e6533"
           fill-opacity="1"
           d="m -286.51836,-249.77474 c 1.2416,0 2.24342,0.42995 3.00962,1.29123 0.85989,0.95498 1.19475,2.1015 1.00185,3.43958 l -8.0257,45.14453 h -9.74411 l 8.74226,-49.87534 h 5.01608"
           id="path438"
           style="fill:#448c74;fill-opacity:1;stroke-width:0.356567" /><path
           fill-rule="nonzero"
           fill="#1e6533"
           fill-opacity="1"
           d="m -264.69853,-217.09732 c -4.0156,0.76619 -6.30865,2.57831 -6.87916,5.44739 -0.28939,3.05512 1.09692,4.58611 4.1548,4.58611 2.67476,0 4.92097,-0.7662 6.73446,-2.29306 1.81765,-1.531 2.96418,-3.67936 3.43958,-6.44921 l 0.7166,-3.58428 c -2.48324,0.95636 -5.20764,1.71841 -8.16628,2.29305 z m -2.86907,17.91452 c -3.91499,0.28938 -7.06935,-0.23978 -9.45748,-1.57787 -3.62973,-2.00367 -5.01604,-5.54108 -4.15614,-10.60401 0.76616,-3.91638 2.62791,-6.87916 5.58793,-8.88697 2.96418,-2.00642 7.45518,-3.29488 13.47307,-3.86953 4.30086,-0.4768 6.59391,-1.76802 6.87917,-3.86953 0.19018,-2.19521 -1.71842,-3.29489 -5.73264,-3.29489 -3.43958,0 -5.54245,0.90675 -6.30728,2.72301 h -9.74411 c 2.38813,-7.16442 8.0753,-10.7487 17.05737,-10.7487 10.69908,0 15.52498,3.58428 14.47352,10.7487 l -2.29305,13.18645 c -1.14653,6.58978 -4.34908,11.17589 -9.60216,13.75833 -2.86769,1.33808 -6.25905,2.14838 -10.1782,2.43501"
           id="path439"
           style="fill:#448c74;fill-opacity:1;stroke-width:0.356567" /><path
           fill-rule="nonzero"
           fill="#1e6533"
           fill-opacity="1"
           d="m -231.41476,-212.6559 c -0.28525,2.0078 0.14193,3.44373 1.28845,4.30084 1.05008,0.95501 2.91317,1.43595 5.59072,1.43595 4.10655,0 6.3996,-1.24577 6.87917,-3.72899 0.3817,-2.0078 -2.67755,-3.58428 -9.17222,-4.72804 -8.31508,-1.53101 -11.99032,-5.35093 -11.03535,-11.46804 0.66699,-3.8213 2.57969,-6.87917 5.73264,-9.17222 3.05512,-2.09876 7.02112,-3.19981 11.89249,-3.29489 4.97057,0 8.74501,1.09692 11.32469,3.29489 2.48324,2.29305 3.48922,5.446 3.00966,9.46161 h -6.16398 c -2.29306,-0.0951 -3.58013,-0.91089 -3.86952,-2.43775 -0.38174,-1.71841 -2.19798,-2.57969 -5.44738,-2.57969 -3.81995,0 -5.92282,1.00183 -6.30315,3.00964 -0.38174,2.0078 1.91131,3.48506 6.87917,4.44141 6.30728,1.3367 10.31875,3.00964 12.03991,5.01606 1.52686,1.91272 2.05328,4.20578 1.57646,6.87917 -0.76478,4.30086 -2.86769,7.55026 -6.30728,9.74824 -3.34447,2.19798 -7.93058,3.29491 -13.75833,3.29491 -5.44738,0 -9.3169,-1.14653 -11.60995,-3.43962 -2.57831,-2.19795 -3.43959,-5.54246 -2.57831,-10.03348 h 10.03211"
           id="path440"
           style="fill:#448c74;fill-opacity:1;stroke-width:0.356567" /><path
           fill-rule="nonzero"
           fill="#1e6533"
           fill-opacity="1"
           d="m -197.69968,-199.825 c -3.63389,-0.33485 -5.01607,-2.65271 -4.15893,-6.95357 l 7.59576,-42.99617 h 5.01605 c 1.24576,0 2.271,0.47956 3.08267,1.43592 0.81168,0.95222 1.07626,2.09875 0.78687,3.43958 l -1.00185,6.15846 h 5.87735 l -0.42997,2.15249 c -0.28938,1.43178 -0.98114,2.60312 -2.07807,3.50987 -1.10105,0.90674 -2.31785,1.3615 -3.65456,1.3615 h -1.00595 l -3.86955,22.07341 c -0.28663,1.62334 0.52504,2.43498 2.43777,2.43498 h 3.00824 l -1.28708,7.45384 c -3.2494,0.28526 -6.68898,0.26042 -10.31875,-0.0703"
           id="path441"
           style="fill:#448c74;fill-opacity:1;stroke-width:0.356567" /><path
           fill-rule="nonzero"
           fill="#1e6533"
           fill-opacity="1"
           d="m -168.57484,-219.10512 c -1.2416,7.55027 0.62149,11.32474 5.59206,11.32474 4.96785,0 8.16628,-3.86955 9.60219,-11.60999 1.33808,-7.5489 -0.47957,-11.32058 -5.44601,-11.32058 -5.16213,0 -8.4074,3.86677 -9.74824,11.60583 z m 25.36829,0 c -2.38813,13.37801 -9.45748,20.06699 -21.20798,20.06699 -11.7547,0 -16.43588,-6.68898 -14.04775,-20.06699 2.29305,-13.4717 9.31693,-20.20617 21.06746,-20.20617 11.75467,0 16.48132,6.73447 14.18827,20.20617"
           id="path442"
           style="fill:#448c74;fill-opacity:1;stroke-width:0.356567" /><path
           fill-rule="nonzero"
           fill="#1e6533"
           fill-opacity="1"
           d="m -117.51713,-230.71095 c -4.29948,0 -6.87917,2.00366 -7.73907,6.01789 l -4.30089,24.79366 h -9.88878 l 4.0156,-22.78586 c 1.9086,-11.08494 8.40602,-16.62603 19.49097,-16.62603 4.96644,0 8.64581,1.09692 11.03397,3.29489 3.15433,-2.09876 7.215402,-3.1502 12.181843,-3.1502 11.084948,0 15.62421,5.53834 13.617786,16.6219 l -4.015599,22.6453 h -5.016076 c -3.249401,-0.19018 -4.586111,-1.81624 -4.011472,-4.87137 l 3.439584,-19.78036 c 0.571888,-4.01146 -1.291202,-6.01927 -5.590682,-6.01927 -4.296727,0 -6.879164,2.00781 -7.736314,6.01927 l -4.30085,24.65173 h -9.88882 l 4.29673,-24.79366 c 0.57601,-4.01423 -1.28708,-6.01789 -5.58793,-6.01789"
           id="path443"
           style="fill:#448c74;fill-opacity:1;stroke-width:0.356567" /><path
           fill-rule="nonzero"
           fill="#1e6533"
           fill-opacity="1"
           d="m -48.54495,-223.54653 c 0.38033,-5.16076 -1.576493,-7.73907 -5.877348,-7.73907 -4.106545,0 -7.019713,2.57831 -8.742257,7.73907 z m 7.595729,11.75191 c -1.817617,4.29946 -4.251254,7.49929 -7.310473,9.60217 -3.439583,2.10287 -7.358732,3.15432 -11.750534,3.15432 -11.754661,-0.38445 -16.481354,-7.1658 -14.188299,-20.35224 2.483239,-13.18645 9.602188,-19.82584 21.352722,-19.92092 12.32655,0 16.767952,7.59437 13.328368,22.78586 h -25.078902 c -0.574639,5.92694 1.481385,8.88559 6.16257,8.88559 2.293055,0 4.586111,-0.90674 6.879166,-2.723 0.956381,-0.95223 2.098746,-1.43178 3.439584,-1.43178 h 7.165798"
           id="path444"
           style="fill:#448c74;fill-opacity:1;stroke-width:0.356567" /><path
           fill-rule="nonzero"
           fill="#1e6533"
           fill-opacity="1"
           d="m -32.602428,-219.96501 c 2.483203,-12.51673 10.222265,-18.77577 23.2185636,-18.77577 h 1.4331597 l -1.8631253,10.17819 h -3.297626 c -5.447382,0 -8.647183,2.81808 -9.603563,8.45564 l -3.58013,20.20755 h -9.891572 l 3.584293,-20.06561"
           id="path445"
           style="fill:#448c74;fill-opacity:1;stroke-width:0.356567" /><path
           fill-rule="nonzero"
           fill="#1e6533"
           fill-opacity="1"
           d="m 3.8356362,-219.10512 c -1.2416014,7.55027 0.6201481,11.32474 5.5879648,11.32474 4.966441,0 8.170369,-3.86955 9.602153,-11.60999 1.33671,-7.5489 -0.475404,-11.32058 -5.447383,-11.32058 -5.1566237,0 -8.4060245,3.86677 -9.7427348,11.60583 z m 25.3683208,0 c -2.392292,13.37801 -9.461606,20.06699 -21.2135158,20.06699 -11.7505339,0 -16.4358815,-6.68898 -14.0463412,-20.06699 2.2958073,-13.4717 9.3155206,-20.20617 21.070182,-20.20617 11.75191,0 16.478603,6.73447 14.189675,20.20617"
           id="path446"
           style="fill:#448c74;fill-opacity:1;stroke-width:0.356567" /><g
           clip-path="url(#clip-11)"
           id="g447"
           transform="matrix(0.35277778,0,0,0.35277778,-1202.2978,-562.81954)"
           style="fill:#448c74;fill-opacity:1;stroke-width:1.01075"><path
             fill-rule="nonzero"
             fill="#1e6533"
             fill-opacity="1"
             d="m 3534.4297,992.58984 c -0.8086,5.69141 0.4101,9.76176 3.6601,12.19136 2.9805,2.7071 8.2618,4.0704 15.8399,4.0704 11.6484,0 18.1484,-3.5313 19.5,-10.57035 1.0898,-5.69141 -7.5781,-10.16016 -26,-13.40234 -23.5586,-4.33985 -33.9883,-15.16797 -31.2813,-32.50782 1.9024,-10.83203 7.3125,-19.5 16.25,-26 8.6719,-5.94922 19.9102,-9.07031 33.7227,-9.33984 14.0898,0 24.7773,3.10937 32.0898,9.33984 7.0508,6.5 9.8907,15.4375 8.5391,26.82032 h -17.4687 c -6.5,-0.26954 -10.1602,-2.58204 -10.9727,-6.91016 -1.0898,-4.87109 -6.2305,-7.3125 -15.4375,-7.3125 -10.832,0 -16.793,2.83984 -17.8711,8.53125 -1.0898,5.69141 5.4102,9.87891 19.5,12.58984 17.8711,3.78907 29.25,8.53125 34.1211,14.21875 4.3398,5.42188 5.8203,11.92188 4.4687,19.5 -2.1679,12.19141 -8.1289,21.40231 -17.8789,27.63281 -9.4726,6.2305 -22.4726,9.3399 -39,9.3399 -15.4296,0 -26.4023,-3.25 -32.9023,-9.7501 -7.3086,-6.2304 -9.75,-15.7109 -7.3086,-28.44136 h 28.4297"
             id="path447"
             style="fill:#448c74;fill-opacity:1;stroke-width:9.12722" /></g><path
           fill-rule="nonzero"
           fill="#1e6533"
           fill-opacity="1"
           d="m -149.85282,-247.23915 c -0.70555,0.29628 -1.41799,0.57878 -2.07394,0.99219 -1.37527,0.86403 -2.44877,2.01056 -3.30179,3.3762 -0.98806,1.57647 -1.62331,3.30177 -2.07394,5.10012 -0.0675,0.26871 0.007,0.40238 0.27146,0.45888 0.23978,0.0496 0.47956,0.113 0.71522,0.17364 0.23012,0.0592 0.33211,-0.04 0.36795,-0.2577 0.14054,-0.86403 0.4258,-1.68947 0.64491,-2.53283 0.0455,-0.18053 0.1378,-0.3142 0.28663,-0.43822 1.03354,-0.87781 2.25722,-1.00459 3.53741,-0.89159 1.12586,0.0978 2.22278,0.38447 3.33763,0.56775 1.57371,0.25769 3.14604,0.40239 4.71978,-0.007 1.85208,-0.48369 3.29487,-1.57785 4.491,-3.01652 1.79285,-2.16215 2.73819,-4.68533 3.10748,-7.44692 0.10612,-0.81167 0.19156,-1.6192 0.18052,-2.43775 -0.004,-0.40928 -0.0275,-0.43133 -0.37758,-0.23013 -1.43866,0.81166 -2.9669,1.35185 -4.61779,1.51446 -1.2554,0.12265 -2.497,0.01 -3.74276,-0.16261 -1.36839,-0.19017 -2.73403,-0.46578 -4.12722,-0.43821 -2.38813,0.0496 -4.5296,0.78686 -6.3252,2.38125 -1.52823,1.3615 -2.19519,3.13641 -2.30406,5.15386 -0.0524,1.01286 0.0772,2.0078 0.25354,2.99861 0.0219,0.10335 0.007,0.26183 0.13092,0.2825 0.12678,0.0248 0.15846,-0.13367 0.21498,-0.22187 0.97426,-1.54478 2.17039,-2.87183 3.74689,-3.81716 0.90674,-0.54295 1.87963,-0.93156 2.93796,-1.10106"
           id="path448"
           style="fill:#448c74;fill-opacity:1;stroke-width:0.356567" /></g></g></g></svg>
